{"title":"White Collar S05E09 HDTV 480p x264 AAC E-Subs [GWC].mp4","uid":9371230,"size":143786844,"categoryP":"video","categoryS":"tv_shows","magnet":"?xt=urn:btih:d88c6d539b3b94f16d47e41ae71b725d52e29f02&amp;dn=White+Collar+S05E09+HDTV+480p+x264+AAC+E-Subs+%5BGWC%5D.mp4&amp;tr=udp%3A%2F%2Ftracker.openbittorrent.com%3A80&amp;tr=udp%3A%2F%2Fopen.demonii.com%3A1337&amp;tr=udp%3A%2F%2Ftracker.coppersurfer.tk%3A6969&amp;tr=udp%3A%2F%2Fexodus.desync.com%3A6969","seeders":0,"leechers":0,"uploader":"canc232","files":1,"time":1387531270,"description":"White Collar S05E09 HDTV 480p x264 AAC E-Subs [GWC]\n\n\nSCREENS :\n &lt;a href=&quot;\nhttp://s20.postimg.org/tadf3y3r1/White_collar_s05e09_hdtv_x264_13_33_22.jpg&quot; rel=&quot;nofollow&quot; target=&quot;_NEW&quot;&gt;\nhttp://s20.postimg.org/tadf3y3r1/White_collar_s05e09_hdtv_x264_13_33_22.jpg&lt;/a&gt;\n &lt;a href=&quot;\nhttp://s20.postimg.org/xtpnpglml/White_collar_s05e09_hdtv_x264_13_33_44.jpg&quot; rel=&quot;nofollow&quot; target=&quot;_NEW&quot;&gt;\nhttp://s20.postimg.org/xtpnpglml/White_collar_s05e09_hdtv_x264_13_33_44.jpg&lt;/a&gt;\n &lt;a href=&quot;\nhttp://s20.postimg.org/oafyvzy4d/White_collar_s05e09_hdtv_x264_13_34_19.jpg&quot; rel=&quot;nofollow&quot; target=&quot;_NEW&quot;&gt;\nhttp://s20.postimg.org/oafyvzy4d/White_collar_s05e09_hdtv_x264_13_34_19.jpg&lt;/a&gt;\n\n\nMEDIA INFO :\n\n\nGeneral\nFormat : MPEG-4 \nFormat profile : Base Media \nFile size : 137 MiB \nDuration : 42mn 52s \nOverall bit rate : 447 Kbps \n\nVideo \nFormat : AVC  \nFormat profile : &lt;a class=&quot;__cf_email__&quot; href=&quot;/cdn-cgi/l/email-protection&quot; data-cfemail=&quot;2c64454b446c601f021c&quot;&gt;[email&amp;#160;protected]&lt;/a&gt;&lt;script data-cfhash='f9e31' type=&quot;text/javascript&quot;&gt;\n/* &lt;![CDATA[ */!function(){try{var t=&quot;currentScript&quot;in document?document.currentScript:function(){for(var t=document.getElementsByTagName(&quot;script&quot;),e=t.length;e--;)if(t[e].getAttribute(&quot;data-cfhash&quot;))return t[e]}();if(t&amp;&amp;t.previousSibling){var e,r,n,i,c=t.previousSibling,a=c.getAttribute(&quot;data-cfemail&quot;);if(a){for(e=&quot;&quot;,r=parseInt(a.substr(0,2),16),n=2;a.length-n;n+=2)i=parseInt(a.substr(n,2),16)^r,e+=String.fromCharCode(i);e=document.createTextNode(e),c.parentNode.replaceChild(e,c)}t.parentNode.removeChild(t);}}catch(u){}}()/* ]]&gt; */&lt;/script&gt; \nFormat settings, CABAC : Yes \nFormat settings, ReFrames : 4 frames \nDuration : 42mn 51s \nBit rate : 384 Kbps \nWidth : 720 pixels \nHeight : 404 pixels \nDisplay aspect ratio : 16:9 \nFrame rate : 23.976 fps \nStream size : 118 MiB (86%) \nTitle : White Collar S05E09 HDTV 480p x264 AAC E-Subs [GWC] \nWriting library : x264 core\n\nAudio \nFormat : AAC \nFormat profile : HE-AAC / LC\nDuration : 42mn 52s \nBit rate mode : Variable \nChannel(s) : 2 channels \nSampling rate : 48.0 KHz / 24.0 KHz \nCompression mode : Lossy \nStream size : 18.4 MiB (13%) \nTitle : White Collar S05E09 HDTV 480p x264 AAC E-Subs [GWC] \nLanguage : English \n\nText \nFormat : Timed Text \nDuration : 42mn 32s \nStream size : 29.6 KiB (0%) \nTitle : English Subtitle by honeybunny \nLanguage : English ","torrent":{"xt":"urn:btih:d88c6d539b3b94f16d47e41ae71b725d52e29f02","amp;dn":"White+Collar+S05E09+HDTV+480p+x264+AAC+E-Subs+%5BGWC%5D.mp4","amp;tr":["udp%3A%2F%2Ftracker.openbittorrent.com%3A80","udp%3A%2F%2Fopen.demonii.com%3A1337","udp%3A%2F%2Ftracker.coppersurfer.tk%3A6969","udp%3A%2F%2Fexodus.desync.com%3A6969"],"infoHash":"d88c6d539b3b94f16d47e41ae71b725d52e29f02","infoHashBuffer":{"type":"Buffer","data":[216,140,109,83,155,59,148,241,109,71,228,26,231,27,114,93,82,226,159,2]},"announce":[],"urlList":[]}}